<?xml version="1.0" encoding="utf-8"?>
<!-- Generator: Adobe Illustrator 27.5.0, SVG Export Plug-In . SVG Version: 6.00 Build 0)  -->
<svg version="1.1" xmlns="http://www.w3.org/2000/svg" xmlns:xlink="http://www.w3.org/1999/xlink" x="0px" y="0px"
	 viewBox="0 0 500 500" style="enable-background:new 0 0 500 500;" xml:space="preserve">
<g id="Background_Complete">
	<rect x="416.779" y="398.494" style="fill:#EBEBEB;" width="33.122" height="0.25"/>
	<rect x="322.527" y="401.208" style="fill:#EBEBEB;" width="8.693" height="0.25"/>
	<rect x="396.586" y="389.208" style="fill:#EBEBEB;" width="19.192" height="0.25"/>
	<rect x="52.459" y="390.888" style="fill:#EBEBEB;" width="43.193" height="0.25"/>
	<rect x="104.556" y="390.888" style="fill:#EBEBEB;" width="6.333" height="0.25"/>
	<rect x="131.471" y="395.111" style="fill:#EBEBEB;" width="93.676" height="0.25"/>
	<path style="fill:#EBEBEB;" d="M237.014,337.8H43.915c-3.147,0-5.708-2.561-5.708-5.708V60.66c0-3.147,2.561-5.708,5.708-5.708
		h193.099c3.146,0,5.707,2.561,5.707,5.708v271.432C242.721,335.239,240.16,337.8,237.014,337.8z M43.915,55.203
		c-3.01,0-5.458,2.448-5.458,5.458v271.432c0,3.01,2.448,5.458,5.458,5.458h193.099c3.009,0,5.457-2.448,5.457-5.458V60.66
		c0-3.009-2.448-5.458-5.457-5.458H43.915z"/>
	<path style="fill:#EBEBEB;" d="M453.31,337.8H260.212c-3.147,0-5.707-2.561-5.707-5.708V60.66c0-3.147,2.561-5.708,5.707-5.708
		H453.31c3.148,0,5.708,2.561,5.708,5.708v271.432C459.019,335.239,456.458,337.8,453.31,337.8z M260.212,55.203
		c-3.009,0-5.457,2.448-5.457,5.458v271.432c0,3.01,2.448,5.458,5.457,5.458H453.31c3.01,0,5.458-2.448,5.458-5.458V60.66
		c0-3.009-2.448-5.458-5.458-5.458H260.212z"/>
	<rect y="382.398" style="fill:#EBEBEB;" width="500" height="0.25"/>
	<g id="Layer_14">
	</g>
	<g>
		<g>
			<rect x="54.554" y="225.963" style="fill:#F0F0F0;" width="93.084" height="157.548"/>
			<rect x="54.554" y="225.963" style="fill:#E6E6E6;" width="97.303" height="11.754"/>
		</g>
		<g id="XMLID_174_">
			<g id="coffee_machine">
				<g id="XMLID_396_">
					<g id="XMLID_1336_">
						<g id="XMLID_868_">
							<polygon id="XMLID_491_" style="fill:#EBEBEB;" points="119.741,217.848 86.189,217.848 80.915,185.456 125.015,185.456 
															"/>
						</g>
						<g id="XMLID_700_">
							<polygon id="XMLID_488_" style="fill:#E0E0E0;" points="124.891,186.425 113.234,186.457 111.229,217.799 119.741,217.843 
															"/>
						</g>
						<g id="XMLID_116_">
							<path id="XMLID_486_" style="fill:#EBEBEB;" d="M126.848,186.43H79.676c-4.788,0-8.67-3.882-8.67-8.67v-7.86
								c0-4.788,3.882-8.67,8.67-8.67h47.172c4.788,0,8.67,3.882,8.67,8.67v7.86C135.518,182.549,131.637,186.43,126.848,186.43z"/>
						</g>
						<g id="XMLID_790_">
							<path id="XMLID_483_" style="fill:#E0E0E0;" d="M135.702,171.306v5.037c0,5.568-4.487,10.029-11.062,10.029h-12.547
								c6.576,0,10.001-4.461,10.001-10.029v-5.037c0-5.568-4.433-10.134-10.001-10.134h13.555
								C131.214,161.172,135.702,165.738,135.702,171.306z"/>
						</g>
					</g>
					<g id="XMLID_395_">
						<g id="XMLID_1753_">
							<rect id="XMLID_480_" x="96.893" y="194.689" style="fill:#E0E0E0;" width="12.096" height="6.93"/>
						</g>
						<g id="XMLID_1748_">
							<rect id="XMLID_478_" x="96.893" y="194.689" style="fill:#F5F5F5;" width="7.056" height="6.93"/>
						</g>
						<g id="XMLID_1526_">
							<path id="XMLID_476_" style="fill:#E0E0E0;" d="M135.221,222.042c0,1.149-0.465,2.182-1.217,2.936
								c-0.753,0.752-1.792,1.212-2.941,1.212H74.867c-2.297,0-4.158-1.85-4.158-4.147c0-1.149,0.465-2.193,1.217-2.946
								c0.753-0.752,1.792-1.222,2.941-1.222h56.196C133.36,217.873,135.221,219.745,135.221,222.042z"/>
						</g>
						<g id="XMLID_1524_">
							<path id="XMLID_474_" style="fill:#EBEBEB;" d="M113.329,222.042c0,1.149-0.465,2.182-1.217,2.936
								c-0.752,0.752-1.793,1.212-2.941,1.212H74.867c-2.297,0-4.158-1.85-4.158-4.147c0-1.149,0.465-2.193,1.217-2.946
								c0.753-0.752,1.792-1.222,2.941-1.222h34.304C111.468,217.873,113.329,219.745,113.329,222.042z"/>
						</g>
						<g id="XMLID_1724_">
							<path id="XMLID_472_" style="fill:#E0E0E0;" d="M109.265,173.878c0,3.48-2.821,6.3-6.3,6.3c-0.612,0-1.205-0.087-1.764-0.251
								c-2.621-0.764-4.536-3.182-4.536-6.049c0-2.867,1.915-5.286,4.536-6.049c0.559-0.164,1.152-0.251,1.764-0.251
								C106.444,167.578,109.265,170.399,109.265,173.878z"/>
						</g>
						<g id="XMLID_1722_">
							<path id="XMLID_470_" style="fill:#FAFAFA;" d="M105.737,173.878c0,2.868-1.915,5.286-4.536,6.049
								c-2.621-0.764-4.536-3.182-4.536-6.049c0-2.867,1.915-5.286,4.536-6.049C103.822,168.592,105.737,171.012,105.737,173.878z"
								/>
						</g>
						<g id="XMLID_1752_">
							<rect id="XMLID_466_" x="92.735" y="186.499" style="fill:#E0E0E0;" width="20.16" height="8.064"/>
						</g>
						<g id="XMLID_1749_">
							<rect id="XMLID_463_" x="92.735" y="186.499" style="fill:#F5F5F5;" width="13.986" height="8.064"/>
						</g>
						<g id="XMLID_787_">
							<circle id="XMLID_461_" style="fill:#E0E0E0;" cx="116.58" cy="173.854" r="2.646"/>
						</g>
						<g id="XMLID_819_">
							<circle id="XMLID_450_" style="fill:#E0E0E0;" cx="125.652" cy="173.854" r="2.646"/>
						</g>
						<g id="XMLID_901_">
							<circle id="XMLID_444_" style="fill:#E0E0E0;" cx="80.921" cy="173.854" r="2.646"/>
						</g>
						<g id="XMLID_995_">
							<rect id="XMLID_442_" x="109.079" y="197.07" style="fill:#FAFAFA;" width="10.08" height="3.15"/>
						</g>
					</g>
				</g>
			</g>
			<g id="XMLID_397_">
				<g id="XMLID_456_">
					<path id="XMLID_222_" style="fill:#E0E0E0;" d="M112.919,187.407H92.822c-0.522,0-0.945-0.423-0.945-0.945
						s0.423-0.945,0.945-0.945h20.097c0.522,0,0.945,0.423,0.945,0.945S113.441,187.407,112.919,187.407z"/>
				</g>
				<g id="XMLID_449_">
					<path id="XMLID_198_" style="fill:#FAFAFA;" d="M116.58,177.445c-1.98,0-3.591-1.611-3.591-3.591
						c0-1.98,1.611-3.591,3.591-3.591c1.98,0,3.591,1.611,3.591,3.591C120.171,175.834,118.56,177.445,116.58,177.445z
						 M116.58,172.153c-0.938,0-1.701,0.763-1.701,1.701c0,0.938,0.763,1.701,1.701,1.701c0.938,0,1.701-0.763,1.701-1.701
						C118.281,172.916,117.518,172.153,116.58,172.153z"/>
				</g>
				<g id="XMLID_447_">
					<path id="XMLID_194_" style="fill:#FAFAFA;" d="M125.652,177.445c-1.98,0-3.591-1.611-3.591-3.591
						c0-1.98,1.611-3.591,3.591-3.591c1.98,0,3.591,1.611,3.591,3.591C129.243,175.834,127.632,177.445,125.652,177.445z
						 M125.652,172.153c-0.938,0-1.701,0.763-1.701,1.701c0,0.938,0.763,1.701,1.701,1.701c0.938,0,1.701-0.763,1.701-1.701
						C127.353,172.916,126.59,172.153,125.652,172.153z"/>
				</g>
				<g id="XMLID_446_">
					<path id="XMLID_191_" style="fill:#FAFAFA;" d="M80.921,177.445c-1.98,0-3.591-1.611-3.591-3.591
						c0-1.98,1.611-3.591,3.591-3.591c1.98,0,3.591,1.611,3.591,3.591C84.512,175.834,82.901,177.445,80.921,177.445z
						 M80.921,172.153c-0.938,0-1.701,0.763-1.701,1.701c0,0.938,0.763,1.701,1.701,1.701c0.938,0,1.701-0.763,1.701-1.701
						C82.622,172.916,81.859,172.153,80.921,172.153z"/>
				</g>
				<g id="XMLID_425_">
					<path id="XMLID_178_" style="fill:#E6E6E6;" d="M102.879,171.84c-0.522,0-0.945-0.423-0.945-0.945v-3.15
						c0-0.522,0.423-0.945,0.945-0.945c0.522,0,0.945,0.423,0.945,0.945v3.15C103.824,171.417,103.4,171.84,102.879,171.84z"/>
				</g>
			</g>
		</g>
		<g>
			<path style="fill:#E6E6E6;stroke:#FAFAFA;stroke-miterlimit:10;" d="M138.597,377.211H61.082V245.396h77.515V377.211z
				 M62.082,376.211h75.515V246.396H62.082V376.211z"/>
		</g>
		<rect x="66.22" y="295.57" style="fill:#E0E0E0;" width="5.988" height="18.33"/>
	</g>
	<g>
		<g>
			<g>
				<g>
					<g>
						<path style="fill:#E0E0E0;" d="M421.155,355.142l-0.817,0.101c-0.051-0.415-5.007-41.892,5.217-75.786
							c10.162-33.688,3.164-55.154,3.092-55.366l0.78-0.264c0.072,0.216,7.152,21.931-3.085,55.868
							C416.17,313.42,421.104,354.729,421.155,355.142z"/>
					</g>
					<g>
						<g>
							<path style="fill:#E0E0E0;" d="M430.105,228.709c-1.764-2.111-4.21-3.619-6.888-4.246l0.188-0.802
								c2.85,0.668,5.454,2.273,7.332,4.52L430.105,228.709z"/>
						</g>
					</g>
					<g>
						
							<rect x="431.276" y="232.766" transform="matrix(0.8707 -0.4919 0.4919 0.8707 -58.7408 242.9448)" style="fill:#E0E0E0;" width="2.705" height="0.823"/>
					</g>
					<g>
						<path style="fill:#E0E0E0;" d="M429.22,251.263c-2.024-4.643-5.883-8.386-10.584-10.269l0.306-0.764
							c4.901,1.964,8.923,5.865,11.033,10.704L429.22,251.263z"/>
					</g>
					<g>
						<path style="fill:#E0E0E0;" d="M427.013,277.177l-0.823,0.01c-0.041-3.347-1.633-6.584-4.259-8.66l0.511-0.646
							C425.26,270.109,426.969,273.584,427.013,277.177z"/>
					</g>
					<g>
						<path style="fill:#E0E0E0;" d="M425.177,283.802l-0.766-0.302c0.825-2.096,2.575-3.822,4.681-4.62l0.292,0.77
							C427.491,280.367,425.918,281.919,425.177,283.802z"/>
					</g>
					<g>
						<path style="fill:#E0E0E0;" d="M419.843,325.841l-0.633-0.525c1.001-1.208,1.758-5.805,2.165-8.276
							c0.097-0.591,0.18-1.094,0.249-1.458l0.809,0.153c-0.068,0.359-0.15,0.855-0.246,1.438
							C421.58,320.862,420.898,324.568,419.843,325.841z"/>
					</g>
					<g>
						<path style="fill:#E0E0E0;" d="M419.367,339.042c-1.063-3.251-4.44-5.583-7.856-5.424l-0.039-0.822
							c3.774-0.176,7.504,2.399,8.678,5.99L419.367,339.042z"/>
					</g>
					<g>
						
							<rect x="418.716" y="350.746" transform="matrix(0.6662 -0.7457 0.7457 0.6662 -120.6687 432.6948)" style="fill:#E0E0E0;" width="8.706" height="0.823"/>
					</g>
				</g>
				<g>
					<path style="fill:#F0F0F0;" d="M429.758,305.323c1.314,4.254-7.854,12.354-7.854,12.354s-12.138-1.518-13.453-5.772
						c-1.314-4.255,1.76-11.216,7.644-13.033C421.979,297.053,428.444,301.068,429.758,305.323z"/>
					<path style="fill:#EBEBEB;" d="M439.932,253.691c-1.163,4.518-9.846,7.728-9.846,7.728s-6.053-7.003-4.89-11.521
						c1.163-4.518,5.963-9.497,10.032-8.45C439.297,242.495,441.095,249.173,439.932,253.691z"/>
					<path style="fill:#F5F5F5;" d="M405.091,321.213c5.452,2.123,8.794,11.765,8.794,11.765s-8.982,4.844-14.434,2.721
						c-5.452-2.123-11.222-8.104-9.665-12.104C391.344,319.594,399.639,319.09,405.091,321.213z"/>
					<path style="fill:#E6E6E6;" d="M417.045,268.163c1.152,0.855,2.341,1.728,3.726,2.104c1.385,0.376,3.032,0.146,3.973-0.937
						c1.167-1.343,0.854-3.424,0.119-5.044c-1.456-3.21-6.829-8.657-10.955-7.094C407.95,259.448,414.388,266.192,417.045,268.163z"
						/>
					<path style="fill:#EBEBEB;" d="M429.237,276.343c-0.782,0.969-1.611,2.19-1.184,3.358c0.379,1.037,1.653,1.512,2.745,1.347
						c1.092-0.165,2.041-0.812,2.948-1.442c2.103-1.46,6.414-4.524,3.662-7.39C434.548,269.238,430.884,274.302,429.237,276.343z"/>
					<path style="fill:#E0E0E0;" d="M411.643,235.561c-0.9,0.099-1.812,0.702-1.965,1.594c-0.179,1.043,0.686,1.956,1.524,2.602
						c2.088,1.609,8.364,5.952,9.765,1.763C422.291,237.561,414.417,235.254,411.643,235.561z"/>
					<g>
						<path style="fill:#E6E6E6;" d="M423.212,221.778c-1.295,0.123-2.587-0.346-3.885-0.264c-1.298,0.082-2.739,1.127-2.45,2.395
							c0.267,1.172,1.724,1.564,2.924,1.64c2.047,0.129,4.111-0.014,6.121-0.423c0.467-0.095,0.974-0.233,1.242-0.627
							c0.525-0.773-0.31-1.809-1.203-2.083c-0.893-0.274-1.901-0.183-2.712-0.646L423.212,221.778z"/>
					</g>
					<g>
						<path style="fill:#F0F0F0;" d="M435.867,230.689c1.3,0.037,2.558-0.516,3.859-0.52c1.301-0.004,2.807,0.944,2.603,2.228
							c-0.189,1.187-1.617,1.675-2.809,1.829c-2.034,0.263-4.103,0.257-6.135-0.018c-0.472-0.064-0.988-0.168-1.281-0.544
							c-0.575-0.737,0.19-1.826,1.063-2.158c0.873-0.332,1.885-0.308,2.664-0.824L435.867,230.689z"/>
					</g>
					<g>
						<path style="fill:#F0F0F0;" d="M434.586,326.489c0.321-0.271,0.685-0.549,1.105-0.547c0.558,0.004,1.001,0.53,1.104,1.078
							c0.104,0.548-0.05,1.108-0.209,1.642c-0.88,2.948-10.776,24.305-13.053,20.47c-1.346-2.267,1.962-9.776,2.938-11.901
							C428.358,333.121,431.129,329.409,434.586,326.489z"/>
					</g>
				</g>
			</g>
			<g>
				<path style="fill:#E6E6E6;" d="M428.668,222.59c0.785-1.763,1.635-3.607,3.196-4.742c1.561-1.135,4.061-1.22,5.198,0.339
					c1.271,1.744,0,4.393-1.947,5.323c-1.947,0.93-4.228,0.65-6.365,0.35c-0.017-0.317-0.035-0.635-0.052-0.952L428.668,222.59z"/>
			</g>
		</g>
		<g>
			<path style="fill:#E6E6E6;" d="M435.483,383.405L435.483,383.405c-10.414,2.101-21.404,2.101-31.818,0l0,0l-8.302-36.521h48.423
				L435.483,383.405z"/>
		</g>
	</g>
	<g>
		
			<ellipse transform="matrix(0.1602 -0.9871 0.9871 0.1602 156.1168 445.6373)" style="fill:#F0F0F0;" cx="339.95" cy="131.072" rx="64.965" ry="64.965"/>
		<g>
			<g>
				<path style="fill:#FFFFFF;" d="M340.134,197.485c-36.626,0-66.426-29.8-66.426-66.427c0-36.629,29.8-66.429,66.426-66.429v2.923
					c-35.016,0-63.502,28.488-63.502,63.505c0,35.016,28.487,63.504,63.502,63.504V197.485z"/>
			</g>
			<g>
				<g>
					<g>
						<path style="fill:#FFFFFF;" d="M340.134,197.485v-2.924c35.016,0,63.505-28.488,63.505-63.504
							c0-35.017-28.489-63.505-63.505-63.505V64.63c36.629,0,66.428,29.8,66.428,66.429
							C406.563,167.686,376.763,197.485,340.134,197.485z"/>
					</g>
					<g>
						<g>
							<path style="fill:#FFFFFF;" d="M374.079,131.072h-2.923c0-21.531-10.926-50.337-31.81-63.735l1.576-2.461
								C362.691,78.842,374.079,108.748,374.079,131.072z"/>
						</g>
						<g>
							<path style="fill:#FFFFFF;" d="M340.922,195.286l-1.576-2.461c20.884-13.398,31.81-42.204,31.81-63.735h2.923
								C374.079,151.414,362.691,181.321,340.922,195.286z"/>
						</g>
					</g>
					<g>
						<g>
							<path style="fill:#FFFFFF;" d="M309.116,131.058h-2.924c0-22.324,11.388-52.229,33.152-66.198l1.581,2.461
								C320.041,80.721,309.116,109.529,309.116,131.058z"/>
						</g>
						<g>
							<path style="fill:#FFFFFF;" d="M339.344,195.271c-21.763-13.968-33.152-43.873-33.152-66.196h2.924
								c0,21.529,10.926,50.335,31.809,63.735L339.344,195.271z"/>
						</g>
					</g>
					<g>
						<rect x="338.672" y="66.091" style="fill:#FFFFFF;" width="2.924" height="129.933"/>
					</g>
				</g>
			</g>
			<g>
				<g>
					<rect x="285.145" y="94.991" style="fill:#FFFFFF;" width="109.981" height="2.923"/>
				</g>
				<g>
					<rect x="275.199" y="130.702" style="fill:#FFFFFF;" width="129.874" height="2.924"/>
				</g>
				<g>
					<rect x="286.599" y="166.385" style="fill:#FFFFFF;" width="107.074" height="2.923"/>
				</g>
			</g>
		</g>
	</g>
</g>
<g id="Background_Simple" style="display:none;">
	<g style="display:inline;">
		<path style="fill:#407BFF;" d="M124.423,148.948c-21.185,20.194-40.204,47.274-40.59,78.499
			c-0.437,35.298,23.14,65.56,49.501,84.736c40.321,29.332,91.031,53.646,137.331,40.893c72.402-19.941,40.377-70.745,72.341-95.864
			c31.964-25.119,60.58-19.753,70.176-53.498c4.156-14.615-5.832-52.067-26.514-70.876c-31.048-28.237-66.77-48.611-106.915-48.233
			c-36.291,0.343-72.476,9.963-105.137,27.731C156.618,122.129,139.679,134.406,124.423,148.948z"/>
		<path style="opacity:0.9;fill:#FFFFFF;" d="M124.423,148.948c-21.185,20.194-40.204,47.274-40.59,78.499
			c-0.437,35.298,23.14,65.56,49.501,84.736c40.321,29.332,91.031,53.646,137.331,40.893c72.402-19.941,40.377-70.745,72.341-95.864
			c31.964-25.119,60.58-19.753,70.176-53.498c4.156-14.615-5.832-52.067-26.514-70.876c-31.048-28.237-66.77-48.611-106.915-48.233
			c-36.291,0.343-72.476,9.963-105.137,27.731C156.618,122.129,139.679,134.406,124.423,148.948z"/>
	</g>
</g>
<g id="Shadow">
	<ellipse id="_x3C_Path_x3E__359_" style="fill:#F5F5F5;" cx="250" cy="415.693" rx="193.889" ry="11.323"/>
</g>
<g id="Character">
	<g>
		<g>
			<g>
				<path style="fill:#263238;" d="M231.246,414.737c0,2.711,2.198,4.909,4.909,4.909c2.711,0,4.909-2.198,4.909-4.909
					s-2.198-4.909-4.909-4.909C233.443,409.828,231.246,412.026,231.246,414.737L231.246,414.737z"/>
				<path style="fill:#263238;" d="M159.142,414.737c0,2.711-2.198,4.909-4.909,4.909c-2.711,0-4.909-2.198-4.909-4.909
					c0-2.711,2.198-4.909,4.909-4.909C156.944,409.828,159.142,412.026,159.142,414.737L159.142,414.737z"/>
				<path style="fill:#263238;" d="M201.667,413.168c0,2.712-2.198,4.909-4.909,4.909c-2.711,0-4.909-2.198-4.909-4.909
					c0-2.711,2.198-4.909,4.909-4.909C199.469,408.258,201.667,410.456,201.667,413.168L201.667,413.168z"/>
			</g>
			<g>
				<path style="fill:#263238;" d="M143.537,408.146c0.226,1.141,1.254,1.955,2.418,1.921l51.198-0.701l47.943,1.085
					c1.164,0.034,2.192-0.78,2.407-1.921c0.26-1.299-0.588-2.542-1.876-2.802l-26.181-5.085c-2.723-0.509-5.469-0.768-8.237-0.768
					h-28.136c-2.757,0-5.514,0.26-8.226,0.768l-29.424,4.712C144.136,405.603,143.289,406.846,143.537,408.146z"/>
			</g>
			<g>
				<rect x="188.451" y="357.158" style="fill:#263238;" width="17.414" height="50.127"/>
				<rect x="190.945" y="325.397" style="fill:#263238;" width="12.414" height="32.006"/>
				<polygon style="opacity:0.2;enable-background:new    ;" points="203.36,331.333 190.945,334.459 190.945,325.397 
					203.36,325.397 				"/>
			</g>
			<g>
				<g>
					<path style="fill:#263238;" d="M142.751,325.272v0.121h1.688C143.858,325.393,143.31,325.349,142.751,325.272z"/>
					<path style="fill:#407BFF;" d="M274.348,313.125c-3.803-6.418-10.69-10.36-18.155-10.36h-44.895V199.048
						c0-0.08,0-0.16-0.01-0.24l0.21,0.04l-1.876-12.586c-0.629-4.302-3.144-8.105-6.847-10.38l-14.472-8.913l-7.586-22.118
						c-0.948-2.755-3.543-4.611-6.458-4.611h-18.116c-3.264,0-6.068,2.316-6.697,5.51l-4.042,20.561l-7.865,8.224
						c-2.415,2.515-3.863,5.819-4.072,9.302l-0.739,12.337l0.13-0.04c-0.09,0.669-0.13,1.337-0.13,2.006v115.535
						c0,5.889,4.342,10.78,10.011,11.598h0.01c0.559,0.08,1.108,0.12,1.687,0.12h122.927c4.481,0.01,8.125-3.623,8.135-8.105
						C275.496,315.81,275.097,314.393,274.348,313.125z M148.517,185.903c-0.09,0.699-0.18,1.397-0.27,2.076l-2.196,0.559h-0.01
						l-6.038,1.547l0.419-6.238l0.13-1.797l8.354-7.556l0.369,2.665l0.17,1.278C149.445,178.437,149.006,182.06,148.517,185.903z
						 M179.576,187.928l-0.828-9.891l0.709-1.737l0.14-0.319l0.759-1.886l3.913,1.886l6.35,5.408l1.412,7.685L179.576,187.928z"/>
					<path style="opacity:0.3;" d="M274.348,313.125c-3.803-6.418-10.69-10.36-18.155-10.36h-44.895V199.048
						c0-0.08,0-0.16-0.01-0.24l0.21,0.04l-1.876-12.586c-0.629-4.302-3.144-8.105-6.847-10.38l-14.472-8.913l-7.586-22.118
						c-0.948-2.755-3.543-4.611-6.458-4.611h-18.116c-3.264,0-6.068,2.316-6.697,5.51l-4.042,20.561l-7.865,8.224
						c-2.415,2.515-3.863,5.819-4.072,9.302l-0.739,12.337l0.13-0.04c-0.09,0.669-0.13,1.337-0.13,2.006v115.535
						c0,5.889,4.342,10.78,10.011,11.598h0.01c0.559,0.08,1.108,0.12,1.687,0.12h122.927c4.481,0.01,8.125-3.623,8.135-8.105
						C275.496,315.81,275.097,314.393,274.348,313.125z M148.517,185.903c-0.09,0.699-0.18,1.397-0.27,2.076l-2.196,0.559h-0.01
						l-6.038,1.547l0.419-6.238l0.13-1.797l8.354-7.556l0.369,2.665l0.17,1.278C149.445,178.437,149.006,182.06,148.517,185.903z
						 M179.576,187.928l-0.828-9.891l0.709-1.737l0.14-0.319l0.759-1.886l3.913,1.886l6.35,5.408l1.412,7.685L179.576,187.928z"/>
				</g>
			</g>
		</g>
		<g>
			<g>
				<path style="fill:#407BFF;" d="M199.462,284.015c13.546-5.726,44.015-1.952,58.181,1.996c2.946,0.9,6.1-0.54,7.35-3.355l0,0
					c1.11-2.797-1.244-11.416-4.814-12.419c-16.544-4.616-49.143-3.012-64.962,3.681c-3.413,1.44-4.91,5.076-3.452,7.708l0,0
					C193.366,284.242,196.66,285.265,199.462,284.015z"/>
			</g>
			<g style="opacity:0.3;">
				<path style="fill:#FFFFFF;" d="M199.462,284.015c13.546-5.726,44.015-1.952,58.181,1.996c2.946,0.9,6.1-0.54,7.35-3.355l0,0
					c1.11-2.797-1.244-11.416-4.814-12.419c-16.544-4.616-49.143-3.012-64.962,3.681c-3.413,1.44-4.91,5.076-3.452,7.708l0,0
					C193.366,284.242,196.66,285.265,199.462,284.015z"/>
			</g>
			<g>
				<rect x="232.511" y="279.667" style="fill:#263238;" width="6.309" height="26.916"/>
				<rect x="232.511" y="279.667" style="fill:#263238;" width="6.309" height="45.73"/>
			</g>
		</g>
		<g>
			<g>
				<g>
					<polygon style="fill:#B55B52;" points="259.411,383.507 260.598,405.017 271.319,404.155 272.336,383.737 					"/>
					<g>
						<path style="fill:#407BFF;" d="M273.19,403.811c-0.102-0.017-0.184-0.092-0.209-0.192c-0.024-0.101,0.019-0.206,0.107-0.262
							c0.155-0.099,3.68-2.344,5.438-1.95c0.327,0.068,0.616,0.262,0.803,0.539c0.248,0.306,0.276,0.734,0.07,1.07
							c-0.401,0.576-1.725,0.876-3.017,0.938C275.317,404,274.249,403.952,273.19,403.811z M273.972,403.443
							c1.945,0.146,4.565,0.004,5.014-0.696c0.066-0.087,0.123-0.238-0.074-0.536c-0.109-0.178-0.293-0.296-0.5-0.321
							c-0.155-0.036-0.315-0.049-0.474-0.038C276.528,402.128,275.182,402.667,273.972,403.443z"/>
						<path style="fill:#407BFF;" d="M273.06,403.803c-0.077-0.045-0.124-0.128-0.121-0.217c0.008-0.131,0.15-2.947,1.421-4.098
							c0.365-0.339,0.852-0.515,1.35-0.486c0.681,0.035,0.909,0.368,0.948,0.649c0.278,1.158-2.111,3.531-3.327,4.142
							c-0.031,0.017-0.067,0.022-0.102,0.014C273.174,403.826,273.114,403.826,273.06,403.803z M275.567,399.476
							c-0.312,0.012-0.609,0.136-0.836,0.35c-0.732,0.933-1.16,2.068-1.227,3.252c1.251-0.824,2.803-2.664,2.706-3.366
							c-0.021-0.062-0.059-0.239-0.503-0.255L275.567,399.476L275.567,399.476z"/>
						<path style="fill:#263238;" d="M272.06,402.408l-11.342,0.546c-0.427,0.02-0.784,0.334-0.857,0.756l-1.606,9.326
							c-0.149,0.826,0.401,1.616,1.227,1.765c0.106,0.019,0.214,0.027,0.321,0.023c4.085-0.268,7.71-0.666,12.801-0.904
							c6.007-0.287,4.518,0.505,11.585,0.266c4.258-0.148,4.804-5.023,2.989-5.174c-8.308-0.642-9.285-3.095-12.613-5.897
							C273.843,402.579,272.952,402.328,272.06,402.408z"/>
					</g>
					<polygon style="opacity:0.1;" points="260.237,397.28 271.64,396.513 272.336,382.537 259.411,382.306 					"/>
					<path style="opacity:0.4;" d="M256.042,302.831c0.044,0.194,0.09,0.387,0.134,0.581c-0.317-3.246-0.718-5.937-1.218-7.884
						c-3.665-14.265-41.856-16.645-57.481-17.019l-18.778,2.058c0,0-1.752,15.04,2.723,24.559
						C185.896,314.644,256.042,302.831,256.042,302.831z"/>
				</g>
				<g>
					<polygon style="fill:#B55B52;" points="233.824,388.636 234.794,410.5 245.389,410.113 246.643,386.963 					"/>
					<g>
						<path style="fill:#407BFF;" d="M247.062,407.148c-0.102-0.013-0.187-0.085-0.216-0.184c-0.027-0.1,0.012-0.206,0.097-0.266
							c0.151-0.105,3.59-2.48,5.361-2.152c0.33,0.056,0.625,0.239,0.823,0.509c0.259,0.296,0.303,0.723,0.11,1.066
							c-0.38,0.59-1.691,0.941-2.98,1.051C249.193,407.257,248.124,407.249,247.062,407.148z M247.828,406.751
							c1.949,0.073,4.562-0.167,4.985-0.883c0.063-0.089,0.114-0.242-0.095-0.533c-0.115-0.173-0.303-0.285-0.511-0.302
							c-0.156-0.03-0.316-0.037-0.475-0.02C250.334,405.341,249.009,405.931,247.828,406.751z"/>
						<path style="fill:#407BFF;" d="M246.93,407.145c-0.079-0.042-0.128-0.123-0.129-0.213c0.003-0.131,0.04-2.95,1.267-4.148
							c0.352-0.353,0.833-0.546,1.331-0.536c0.682,0.01,0.923,0.333,0.972,0.613c0.321,1.147-1.978,3.607-3.17,4.263
							c-0.03,0.018-0.066,0.025-0.101,0.018C247.046,407.164,246.985,407.165,246.93,407.145z M249.275,402.728
							c-0.311,0.023-0.603,0.159-0.822,0.381c-0.697,0.96-1.082,2.11-1.104,3.296c1.22-0.87,2.702-2.767,2.578-3.465
							c-0.024-0.061-0.068-0.237-0.513-0.236L249.275,402.728L249.275,402.728z"/>
						<path style="fill:#263238;" d="M245.879,405.788l-11.314,0.969c-0.426,0.036-0.771,0.363-0.828,0.788l-1.257,9.379
							c-0.118,0.831,0.461,1.6,1.292,1.718c0.107,0.015,0.215,0.019,0.322,0.011c4.072-0.42,7.68-0.954,12.758-1.382
							c5.992-0.511,4.533,0.336,11.586-0.167c4.249-0.307,4.613-5.199,2.793-5.282c-8.326-0.332-9.394-2.745-12.824-5.422
							C247.668,405.893,246.768,405.675,245.879,405.788z"/>
					</g>
					<polygon style="opacity:0.1;" points="245.9,400.102 246.498,389.066 233.883,389.353 234.395,400.905 					"/>
					<path style="fill:#407BFF;" d="M208.357,277.273c0,0,66.63-5.102,71.25,12.877c4.62,17.979-5.62,102.723-5.62,102.723
						l-16.474,1.391c0,0-2.165-50.041-2.468-91.367c0,0-70.146,11.813-74.62,2.294c-4.474-9.519-2.723-24.559-2.723-24.559
						L208.357,277.273z"/>
					<path style="fill:#263238;" d="M208.357,277.273c0,0,66.63-5.102,71.25,12.877c4.62,17.979-5.62,102.723-5.62,102.723
						l-16.474,1.391c0,0-2.165-50.041-2.468-91.367c0,0-70.146,11.813-74.62,2.294c-4.474-9.519-2.723-24.559-2.723-24.559
						L208.357,277.273z"/>
					<path style="opacity:0.1;" d="M208.357,277.273c0,0,66.63-5.102,71.25,12.877c4.62,17.979-5.62,102.723-5.62,102.723
						l-16.474,1.391c0,0-2.165-50.041-2.468-91.367c0,0-70.146,11.813-74.62,2.294c-4.474-9.519-2.723-24.559-2.723-24.559
						L208.357,277.273z"/>
					<path style="fill:#263238;" d="M191.527,279.885c0,0,67.173-2.601,68.093,15.939c0.719,14.488-11.518,100.564-11.518,100.564
						l-15.358,1.191c0,0-2.815-51.722-0.896-87.031c0,0-57.967,6.646-68.171-1.51c-9.734-7.78-2.154-29.26-2.154-29.26
						L191.527,279.885z"/>
				</g>
			</g>
			<g id="_x3C_Group_x3E__10_">
				<g>
					<g>
						<g>
							<g>
								<path style="fill:#407BFF;" d="M218.237,235.09L218.237,235.09c8.334,7.285,17.907,13.017,28.263,16.925l1.674,0.632
									l0.873-4.538l-20.313-20.612c0,0-16.864-31.716-26.544-29.947C190.701,199.65,218.237,235.09,218.237,235.09z"/>
							</g>
							<g style="opacity:0.1;">
								<path style="fill:#FFFFFF;" d="M218.237,235.09L218.237,235.09c8.334,7.285,17.907,13.017,28.263,16.925l1.674,0.632
									l0.873-4.538l-20.313-20.612c0,0-16.864-31.716-26.544-29.947C190.701,199.65,218.237,235.09,218.237,235.09z"/>
							</g>
							<path style="fill:#B55B52;" d="M248.174,252.647l0.873-4.538l12.18-1.986c0,0,11.903,5.884,9.195,7.182h-13.155
								L248.174,252.647z"/>
						</g>
						<path style="fill:#407BFF;" d="M213.996,278.57L213.996,278.57c-9.783,2.6-19.961,3.622-30.098,3.021l-21.823-1.294
							c-0.522-4.478-3.873-14.315-8.488-39.669c-1.15-12.772-4.726-16.816-0.6-36.123c-0.008-0.036-0.015-0.072-0.022-0.108
							c-0.638-3.27,1.679-6.415,5.175-7.024l0.116-0.004c3.228-0.544,7.278-1.124,11.26-1.425
							c7.596-0.634,15.223-0.864,22.843-0.691c2.54,0.175,5.065,0.501,7.561,0.976c3.534,0.558,6.45,2.884,7.599,6.06
							C211.11,212.532,212.343,236.966,213.996,278.57z"/>
					</g>
				</g>
				<g>
					<g>
						<path style="fill:#B55B52;" d="M184.391,201.663c-11.295,0.963-15.617-5.7-15.617-5.7c4.816-5.113,2.5-18.453,0.588-25.763
							l6.259,4.882l8.532,6.654c-0.206,1.123-0.351,2.258-0.428,3.396c-0.063,0.832-0.057,1.655,0.024,2.451l-0.006,0.03
							l0.015,0.136c0.379,3.412,2.273,6.249,7.629,7.346C191.386,195.095,194.019,200.802,184.391,201.663z"/>
						<path style="fill:#263238;" d="M171.619,181.614c-1.478-1.746-3.383-3.128-5.501-3.993c-1.778-0.726-3.686-1.087-5.47-1.799
							c-1.783-0.712-3.513-1.874-4.274-3.637c-0.643-1.489-0.479-3.299,0.422-4.649c-1.398-0.85-2.804-1.752-3.549-3.21
							c-0.745-1.457-0.398-3.601,1.118-4.219c-1.473-1.873-2.24-4.997-1.474-7.253c0.766-2.256,2.724-4.069,5.032-4.658
							c1.435-0.367,2.811-1.387,3.327-2.775c0.516-1.388,0.538-2.936,1.161-4.28c0.663-1.431,2.014-2.523,3.551-2.872
							c1.538-0.349,3.228,0.053,4.443,1.058c0.495-1.571,1.427-2.921,2.879-3.697c1.452-0.777,3.298-0.852,4.739-0.054
							c1.441,0.798,2.372,2.502,2.117,4.129c0.561-1.194,2.167-1.524,3.429-1.141c1.263,0.383,2.222,1.443,2.836,2.611
							c0.614,1.168,0.941,2.461,1.364,3.711c0.423,1.25,0.969,2.502,1.918,3.419c1.475,1.426,3.873,1.792,5.707,0.871
							c0.59,0.882,0.296,2.152-0.354,2.991c-0.65,0.839-1.856,1.197-2.858,0.847c0.759,1.021,0.888,2.408,0.53,3.629
							c-0.358,1.221-1.313,2.251-2.503,2.701c-3.413-0.591-6.696,1.613-8.29,4.689c-1.594,3.076-2.073,6.597-3.275,9.846
							C177.442,177.127,175.014,180.927,171.619,181.614z"/>
					</g>
					<path style="opacity:0.2;enable-background:new    ;" d="M184.152,181.736c-0.206,1.123-0.351,2.258-0.428,3.396
						c-0.063,0.832-0.057,1.655,0.024,2.451l-0.006,0.03l0.015,0.136c-3.116-0.558-7.312-3.701-7.869-6.867
						c-0.187-1.039-0.258-2.091-0.222-3.155L184.152,181.736z"/>
				</g>
				<g>
					<path style="fill:#FFFFFF;" d="M166.431,195.19l3.447-1.392c3.911,3.661,8.621,6.361,13.756,7.887
						c-2.144,1.539-3.782,3.682-4.706,6.154C166.753,204.114,166.431,195.19,166.431,195.19z"/>
					<path style="fill:#FFFFFF;" d="M191.333,194.462l-3.274-0.583c0,0-1.107,6.805-4.423,7.858c5.908,2.087,6.96,4.939,6.96,4.939
						C198.912,203.708,191.333,194.462,191.333,194.462z"/>
				</g>
				<g>
					<g>
						<path style="fill:#B55B52;" d="M162.589,159.053c-0.047-7.27,5.809-13.201,13.078-13.249
							c10.612-0.329,18.306,12.434,20.231,21.36c0.604,2.567,0.413,5.258-0.548,7.714c-2.616,6.684-10.154,9.983-16.839,7.367
							c-6.838-2.576-9.254-7.914-14.13-16.645C163.222,163.613,162.604,161.355,162.589,159.053z"/>
						<path style="fill:#263238;" d="M159.65,158.608c-0.037,2.668,1.098,5.332,3.046,7.154s4.682,2.776,7.342,2.561
							c1.03-0.083,1.893-0.334,2.686-0.997c-1.545-0.053-3.046-0.99-4.08-2.139c-1.034-1.149-1.575-2.727-1.465-4.269
							c1.329-0.076,2.628-0.72,3.348-1.84s0.869-2.587,0.388-3.829c-0.167-0.011,0.488-3.453,0.956-4.807
							c0.467-1.354,1.289-2.635,2.511-3.382c1.222-0.747,2.882-0.863,4.064-0.052c0.71,0.487,1.188,1.244,1.838,1.809
							s6.361-3.019-1.275-5.648c-4.446-1.531-9.643-0.411-13.329,2.509C161.995,148.599,159.715,153.906,159.65,158.608z"/>
						<g>
							<path style="fill:#263238;" d="M191.341,169.06c0,0-2.734,0.161-9.856,2.449c1.512,2.13,3.622,3.561,7.275,2.388
								c1.88-0.39,3.071-2.402,2.662-4.495C191.4,169.287,191.373,169.172,191.341,169.06z"/>
							<path style="fill:#E83F3F;" d="M186.531,172.524c1.379-0.536,2.888-0.572,4.314-0.104c-0.536,0.71-1.262,1.215-2.079,1.445
								c-1.375,0.539-2.883,0.575-4.305,0.102C184.988,173.251,185.713,172.745,186.531,172.524z"/>
							<path style="fill:#FFFFFF;" d="M190.997,169.099c0.025,0.643-0.275,1.238-0.778,1.543c-2.118,0.667-4.288,1.138-6.486,1.409
								c-0.696,0.143-1.421-0.108-1.935-0.67C184.8,170.358,187.875,169.595,190.997,169.099z"/>
						</g>
						<path style="opacity:0.2;enable-background:new    ;" d="M188.627,166.788c1.335-0.226,2.502-1.029,3.19-2.195
							c-2.388-1.259-4.596-2.835-6.561-4.687L188.627,166.788z"/>
						<path style="fill:#B55B52;" d="M165.043,167.866c2.296-0.991,5.635,1.325,7.226,3.244c1.766,2.144,1.564,4.642-1.129,4.718
							c-2.167-0.044-4.252-0.836-5.9-2.243C163.156,171.818,162.746,168.857,165.043,167.866z"/>
						<path style="fill:#263238;" d="M179.675,161.202c0.489-0.209,1.206,0.282,1.518,0.949c0.313,0.667,0.205,1.428-0.277,1.649
							c-0.482,0.22-1.104-0.236-1.512-0.937C179.053,162.129,179.187,161.412,179.675,161.202z"/>
						<path style="fill:#263238;" d="M187.825,157.095c0.489-0.209,1.16,0.204,1.512,0.938c0.352,0.733,0.25,1.507-0.238,1.716
							c-0.489,0.209-1.167-0.215-1.518-0.949C187.235,158.077,187.336,157.304,187.825,157.095z"/>
						<path style="fill:#263238;" d="M185.155,154.592c0.142,0.07,0.309,0.068,0.45-0.004c1.041-0.666,2.329-0.819,3.497-0.416
							c0.23,0.111,0.508,0.015,0.619-0.215c0.003-0.007,0.007-0.015,0.01-0.022c0.1-0.239-0.004-0.515-0.237-0.629l0,0
							c-1.449-0.54-3.067-0.369-4.371,0.462c-0.221,0.14-0.293,0.431-0.162,0.658C185.013,154.495,185.079,154.551,185.155,154.592z
							"/>
						<path style="fill:#263238;" d="M176.711,160.74c0.155-0.032,0.286-0.136,0.353-0.28c0.411-1.165,1.333-2.078,2.501-2.478
							c0.25-0.054,0.409-0.3,0.355-0.55c-0.002-0.008-0.003-0.015-0.006-0.023c-0.068-0.25-0.32-0.404-0.573-0.35l0,0
							c-1.475,0.465-2.646,1.595-3.163,3.053c-0.088,0.247,0.034,0.519,0.277,0.618C176.539,160.752,176.626,160.755,176.711,160.74
							z"/>
					</g>
				</g>
				<g>
					<g>
						<path style="fill:#407BFF;" d="M163.839,223.175l1.258-2.656c1.658-3.5,8.602-17.436,11.98-18.914l1.244-0.786l4.716,7.183
							c-0.811,0.691-9.693,23.633-11.814,28.441c-0.325,0.736-0.616,1.479-0.83,2.253c-1.456,5.262-10.403,13.325-16.382-1.809
							c-1.494-3.19-2.863-6.327-4.089-9.495c-0.633-1.648-1.198-3.197-1.772-4.835c-0.101-0.29-0.308-0.88-0.583-1.666
							c-2.764-7.909-3.233-16.973,4.318-21.627l5.078-1.714L163.839,223.175z"/>
					</g>
				</g>
				<g style="opacity:0.1;">
					<g>
						<path style="fill:#FFFFFF;" d="M163.839,223.175l1.258-2.656c1.658-3.5,8.602-17.436,11.98-18.914l1.244-0.786l4.716,7.183
							c-0.811,0.691-9.693,23.633-11.814,28.441c-0.325,0.736-0.616,1.479-0.83,2.253c-1.456,5.262-10.403,13.325-16.382-1.809
							c-1.494-3.19-2.863-6.327-4.089-9.495c-0.633-1.648-1.198-3.197-1.772-4.835c-0.101-0.29-0.308-0.88-0.583-1.666
							c-2.764-7.909-3.233-16.973,4.318-21.627l5.078-1.714L163.839,223.175z"/>
					</g>
				</g>
				<g>
					<g>
						<g>
							<g>
								<path style="fill:#FFFFFF;" d="M190.641,195.653c0.035,0.342,0.123,0.673,0.233,1.003c0.158,0.48,0.337,0.944,0.584,1.388
									c0.339,0.577,0.75,1.088,1.243,1.549c0.016,0.014,0.313,0.265,0.33,0.287c0.291,0.281,0.617,0.507,0.951,0.733
									c0.644,0.445,1.337,0.795,2.103,0.965c0.155,0.037,0.251,0.123,0.328,0.264c0.087,0.186,0.204,0.355,0.306,0.533
									c0.085,0.156,0.17,0.304,0.24,0.46c0.097,0.231,0.238,0.414,0.459,0.547c0.404,0.252,0.855,0.379,1.303,0.468
									c1.199,0.252,2.411,0.336,3.63,0.266c0.633-0.029,1.258-0.064,1.879-0.161c0.674-0.1,1.339-0.237,1.993-0.435
									c0.518-0.16,1.028-0.334,1.485-0.635c0.191-0.126,0.359-0.265,0.454-0.484c0.047-0.117,0.064-0.225,0.118-0.335
									c0.135-0.321,0.269-0.642,0.396-0.963c0.201-0.493,0.363-0.999,0.518-1.504c0.156-0.49,0.318-0.989,0.419-1.491
									c0.1-0.518,0.216-1.029,0.293-1.553c0.133-0.879,0.236-1.763,0.33-2.655c0.037-0.415,0.033-0.896,0.054-1.318
									c-0.004-0.336-0.008-0.68-0.111-1.01c-0.067-0.233-0.185-0.433-0.356-0.614c-0.471-0.485-1.033-0.82-1.651-1.075
									c-0.579-0.242-1.191-0.383-1.808-0.478c-0.262-0.038-0.51-0.108-0.772-0.139c-4.465-0.578-7.638,0.467-8.142,0.618
									c-0.526,0.16-1.043,0.335-1.549,0.57c-0.446,0.217-0.844,0.484-1.223,0.796c-0.277,0.238-0.529,0.497-0.693,0.834
									c-0.062,0.126-0.1,0.258-0.13,0.397c-0.044,0.163-0.044,0.171-0.198,0.141c-0.903-0.155-1.709,0.044-2.342,0.738
									c-0.237,0.266-0.386,0.595-0.497,0.938C190.681,194.741,190.592,195.182,190.641,195.653z M197.347,193.573
									c-0.548-0.098-1.083-0.236-1.592-0.451c-0.125-0.054-0.258-0.092-0.355-0.194c0,0,0.202-0.47,0.68-0.811
									c0.191-0.133,0.39-0.259,0.598-0.363c0.364-0.189,0.745-0.341,1.135-0.462c0.593-0.187,1.227-0.33,1.84-0.441
									c0.605-0.111,1.182-0.175,1.798-0.225c0.563-0.047,1.014-0.05,1.579-0.052c0.673,0.007,1.455,0.047,2.117,0.139
									c0.716,0.097,1.419,0.232,2.099,0.484c0.555,0.213,1.136,0.485,1.522,0.952c-0.014,0.016-0.029,0.025-0.044,0.041
									c-0.051,0.041-0.102,0.082-0.154,0.116c-0.139,0.1-0.288,0.184-0.436,0.262c-0.571,0.3-1.186,0.511-1.811,0.669
									c-0.143,0.039-0.286,0.077-0.429,0.109c-0.083,0.02-0.158,0.04-0.242,0.052c-0.467,0.111-0.937,0.184-1.407,0.249
									c-0.455,0.064-0.918,0.121-1.383,0.14c-0.358,0.02-0.715,0.056-1.073,0.077c-0.031,0.002-0.053,0.003-0.077-0.003
									c-0.007,0.008-0.023,0.001-0.038,0.002l-0.198,0.011c-0.474,0.004-0.948,0.001-1.422-0.018
									c-0.421-0.007-0.841-0.013-1.264-0.05C198.305,193.762,197.826,193.66,197.347,193.573z M192.825,195.214
									c0.112-0.442,0.372-0.709,0.817-0.811c0.038-0.01,0.159-0.024,0.304-0.033c0.124,0.688,0.291,1.344,0.443,2
									c0.195,0.868,0.457,1.709,0.727,2.549c0.083,0.24,0.312,0.907,0.541,1.176c-0.072-0.057-0.399-0.306-0.495-0.377
									c-0.489-0.392-0.891-0.874-1.256-1.38c-0.373-0.514-0.733-1.051-0.951-1.658C192.79,196.21,192.694,195.726,192.825,195.214
									z"/>
								<path style="opacity:0.7;fill:#FFFFFF;" d="M194.914,193.303c1.074,0.883,3.43,1.33,7.267,1.111
									c3.837-0.219,6.127-0.932,7.092-1.931c0.639-0.662,0.312-1.58-0.192-2.123c-0.288-0.189-0.596-0.346-0.919-0.479
									c-0.581-0.238-1.188-0.385-1.808-0.477c-0.258-0.039-0.513-0.109-0.772-0.142c-4.463-0.574-7.642,0.474-8.138,0.624
									c-0.528,0.16-1.05,0.33-1.551,0.569c-0.266,0.127-0.517,0.274-0.756,0.439h0
									C194.364,191.536,194.125,192.655,194.914,193.303z M195.392,192.926c0,0,0.2-0.472,0.677-0.806
									c0.192-0.135,0.388-0.261,0.597-0.368c0.367-0.189,0.748-0.341,1.14-0.463c0.588-0.183,1.225-0.33,1.834-0.439
									c0.609-0.107,1.184-0.173,1.799-0.224c0.565-0.046,1.015-0.054,1.582-0.05c0.671,0.004,1.456,0.046,2.119,0.135
									c0.711,0.097,1.416,0.233,2.094,0.486c0.554,0.207,1.134,0.485,1.521,0.951c-0.013,0.013-0.027,0.024-0.04,0.037
									c-0.051,0.046-0.102,0.087-0.156,0.122c-0.135,0.098-0.282,0.182-0.431,0.261c-0.575,0.301-1.186,0.505-1.811,0.669
									c-0.144,0.039-0.288,0.074-0.435,0.108c-0.08,0.019-0.16,0.037-0.24,0.054c-0.465,0.103-0.934,0.183-1.405,0.248
									c-0.459,0.064-0.921,0.115-1.385,0.139c-0.36,0.018-0.718,0.058-1.077,0.072c-0.025,0.001-0.049,0.003-0.072,0.003
									c-0.012,0.002-0.025,0.001-0.036,0.002c-0.055,0.002-0.111,0.003-0.166,0.004c-0.012,0.001-0.024,0.001-0.037,0.001
									c-0.473,0.009-0.945,0-1.419-0.012c-0.421-0.011-0.843-0.019-1.262-0.055c-0.484-0.042-0.969-0.139-1.448-0.228
									c-0.546-0.101-1.081-0.233-1.591-0.453C195.621,193.069,195.486,193.029,195.392,192.926z"/>
								<g>
									<g>
										<path style="fill:none;" d="M195.415,192.925c0,0,0.2-0.472,0.677-0.806c0.192-0.135,0.388-0.261,0.597-0.368
											c0.367-0.189,0.748-0.341,1.14-0.463c0.588-0.183,1.225-0.33,1.834-0.439c0.609-0.107,1.184-0.174,1.799-0.224
											c0.565-0.046,1.015-0.054,1.582-0.049c0.671,0.004,1.456,0.045,2.119,0.135c0.711,0.097,1.416,0.233,2.094,0.486
											c0.554,0.207,1.134,0.485,1.521,0.951c-0.013,0.013-0.027,0.024-0.04,0.037c-0.05,0.046-0.102,0.087-0.156,0.122
											c-0.135,0.098-0.283,0.183-0.431,0.261c-0.575,0.301-1.186,0.505-1.811,0.669c-0.144,0.038-0.289,0.074-0.435,0.108
											c-0.08,0.019-0.16,0.037-0.24,0.054c-0.465,0.103-0.934,0.183-1.404,0.248c-0.459,0.064-0.921,0.115-1.385,0.139
											c-0.36,0.018-0.717,0.058-1.076,0.072c-0.025,0.001-0.049,0.003-0.072,0.003c-0.012,0.002-0.025,0.001-0.037,0.002
											c-0.055,0.002-0.111,0.003-0.166,0.004c-0.012,0.001-0.024,0.001-0.037,0.001c-0.473,0.009-0.945,0-1.419-0.012
											c-0.421-0.01-0.843-0.019-1.262-0.055c-0.484-0.042-0.969-0.139-1.448-0.228c-0.546-0.101-1.081-0.233-1.592-0.453
											C195.643,193.067,195.509,193.027,195.415,192.925z"/>
									</g>
									<g>
										<path style="fill:none;" d="M195.415,192.925c0,0,0.2-0.472,0.677-0.806c0.192-0.135,0.388-0.261,0.597-0.368
											c0.367-0.189,0.748-0.341,1.14-0.463c0.588-0.183,1.225-0.33,1.834-0.439c0.609-0.107,1.184-0.174,1.799-0.224
											c0.565-0.046,1.015-0.054,1.582-0.049c0.671,0.004,1.456,0.045,2.119,0.135c0.711,0.097,1.416,0.233,2.094,0.486
											c0.554,0.207,1.134,0.485,1.521,0.951c-0.013,0.013-0.027,0.024-0.04,0.037c-0.05,0.046-0.102,0.087-0.156,0.122
											c-0.135,0.098-0.283,0.183-0.431,0.261c-0.575,0.301-1.186,0.505-1.811,0.669c-0.144,0.038-0.289,0.074-0.435,0.108
											c-0.08,0.019-0.16,0.037-0.24,0.054c-0.465,0.103-0.934,0.183-1.404,0.248c-0.459,0.064-0.921,0.115-1.385,0.139
											c-0.36,0.018-0.717,0.058-1.076,0.072c-0.025,0.001-0.049,0.003-0.072,0.003c-0.012,0.002-0.025,0.001-0.037,0.002
											c-0.055,0.002-0.111,0.003-0.166,0.004c-0.012,0.001-0.024,0.001-0.037,0.001c-0.473,0.009-0.945,0-1.419-0.012
											c-0.421-0.01-0.843-0.019-1.262-0.055c-0.484-0.042-0.969-0.139-1.448-0.228c-0.546-0.101-1.081-0.233-1.592-0.453
											C195.643,193.067,195.509,193.027,195.415,192.925z"/>
									</g>
								</g>
								<g>
									<g>
										<path style="fill:#263238;" d="M195.4,192.927c0.097,0.102,0.23,0.14,0.355,0.194c0.509,0.215,1.044,0.353,1.592,0.451
											c0.479,0.087,0.958,0.19,1.442,0.231c0.423,0.037,0.843,0.044,1.264,0.05c0.475,0.019,0.949,0.022,1.422,0.018
											l0.198-0.011c0.015-0.001,0.031,0.006,0.038-0.002c0.023,0.006,0.046,0.005,0.077,0.003
											c0.358-0.02,0.715-0.056,1.073-0.077c0.465-0.019,0.928-0.076,1.383-0.14c0.47-0.065,0.94-0.138,1.407-0.249
											c0.083-0.012,0.159-0.032,0.242-0.052c0.143-0.031,0.286-0.07,0.429-0.109c0.625-0.158,1.24-0.369,1.811-0.669
											c0.148-0.077,0.296-0.162,0.436-0.262c0.052-0.034,0.103-0.075,0.154-0.116c0.014-0.016,0.029-0.025,0.044-0.041
											c-0.386-0.467-0.967-0.739-1.522-0.952c-0.679-0.252-1.383-0.387-2.099-0.484c-0.663-0.092-1.444-0.131-2.117-0.139
											c-0.566,0.002-1.016,0.005-1.579,0.052c-0.616,0.051-1.193,0.114-1.798,0.225c-0.613,0.112-1.246,0.255-1.84,0.441
											c-0.39,0.122-0.771,0.273-1.135,0.462c-0.208,0.104-0.407,0.23-0.598,0.363C195.602,192.457,195.4,192.927,195.4,192.927z
											"/>
									</g>
								</g>
								<path style="opacity:0.3;" d="M195.352,191.737c0.144-0.172,0.302-0.324,0.415-0.415c0.618-0.494,1.998-1.245,4.795-1.678
									c0.955-0.148,1.926-0.202,2.891-0.152c2.499,0.129,4.16,0.709,4.808,1.115c0.123,0.077,0.297,0.21,0.46,0.365
									c0.321,0.305,0.357,0.804,0.083,1.151c-0.055,0.054-0.112,0.101-0.172,0.143c0-0.001-0.001-0.001-0.001-0.001
									c-1.481-1.446-5.354-1.5-6.626-1.477c-1.266,0.122-5.108,0.617-6.415,2.222c-0.001,0-0.001,0.001-0.001,0.001
									c-0.064-0.036-0.126-0.076-0.187-0.123C195.089,192.576,195.068,192.076,195.352,191.737z"/>
							</g>
						</g>
					</g>
				</g>
				<g>
					<g>
						<path style="fill:#B55B52;" d="M193.409,196.822l0.841,4.105l-2.537,3.116c0,0-3.677,3.287-8.677,3.96
							c-1.747,0.232-3.451-0.723-4.261-2.295l-0.406-0.791c-0.175-0.355-0.313-0.726-0.403-1.117
							c-0.503-2.125,0.218-3.32,1.997-4.563l6.191-5.438c0.459-0.324,7.52-0.971,7.52-0.971
							C194.445,192.822,193.557,196.063,193.409,196.822z"/>
					</g>
				</g>
			</g>
		</g>
		<g>
			<g>
				<rect x="173.999" y="279.667" style="fill:#263238;" width="6.309" height="26.916"/>
				<rect x="173.999" y="279.667" style="fill:#407BFF;" width="6.309" height="45.73"/>
				<rect x="173.999" y="279.667" style="opacity:0.5;fill:#FFFFFF;" width="6.309" height="45.73"/>
			</g>
		</g>
		<g>
			<path style="fill:#407BFF;" d="M140.95,284.015c13.546-5.726,44.014-1.952,58.181,1.996c2.946,0.9,6.1-0.54,7.35-3.355l0,0
				c1.11-2.797-1.244-11.416-4.814-12.419c-16.544-4.616-49.143-3.012-64.962,3.681c-3.413,1.44-4.91,5.076-3.452,7.708l0,0
				C134.854,284.242,138.148,285.265,140.95,284.015z"/>
		</g>
		<g style="opacity:0.3;">
			<path style="fill:#FFFFFF;" d="M140.95,284.015c13.546-5.726,44.014-1.952,58.181,1.996c2.946,0.9,6.1-0.54,7.35-3.355l0,0
				c1.11-2.797-1.244-11.416-4.814-12.419c-16.544-4.616-49.143-3.012-64.962,3.681c-3.413,1.44-4.91,5.076-3.452,7.708l0,0
				C134.854,284.242,138.148,285.265,140.95,284.015z"/>
		</g>
	</g>
</g>
<g id="Browsing">
	<g>
		<g>
			<g>
				<path style="fill:#407BFF;" d="M353.891,140.325H223.774c-1.109,0-1.98-0.951-1.883-2.055l1.291-14.753
					c0.085-0.977,0.903-1.726,1.883-1.726h130.117c1.109,0,1.98,0.95,1.883,2.055l-1.291,14.753
					C355.689,139.576,354.872,140.325,353.891,140.325z"/>
				<path style="opacity:0.5;fill:#FFFFFF;" d="M353.891,140.325H223.774c-1.109,0-1.98-0.951-1.883-2.055l1.291-14.753
					c0.085-0.977,0.903-1.726,1.883-1.726h130.117c1.109,0,1.98,0.95,1.883,2.055l-1.291,14.753
					C355.689,139.576,354.872,140.325,353.891,140.325z"/>
			</g>
			
				<text transform="matrix(1 0 0 1 227.6219 135.0263)" style="fill:#FFFFFF; font-family:'Montserrat-SemiBoldItalic'; font-size:12px;">Https://www...</text>
			<g>
				<g>
					
						<ellipse transform="matrix(0.7583 -0.6519 0.6519 0.7583 -33.3127 167.8895)" style="fill:none;stroke:#407BFF;stroke-width:3;stroke-linecap:round;stroke-linejoin:round;stroke-miterlimit:10;" cx="209.776" cy="128.873" rx="5.374" ry="4.92"/>
					
						<line style="fill:none;stroke:#407BFF;stroke-width:3;stroke-linecap:round;stroke-linejoin:round;stroke-miterlimit:10;" x1="212.59" y1="133.213" x2="216.598" y2="138.725"/>
				</g>
				<g style="opacity:0.5;">
					<g>
						<path style="fill:#FFFFFF;" d="M209.323,135.491c-1.811,0-3.458-0.709-4.636-1.997c-1.171-1.279-1.73-2.968-1.572-4.753
							c0.315-3.576,3.506-6.485,7.112-6.485c1.811,0,3.457,0.709,4.636,1.996c1.171,1.28,1.73,2.968,1.572,4.754l0,0
							C216.12,132.581,212.929,135.491,209.323,135.491z M210.228,125.256c-2.091,0-3.941,1.682-4.124,3.75
							c-0.083,0.938,0.2,1.813,0.796,2.464c0.604,0.659,1.464,1.022,2.424,1.022c2.091,0,3.941-1.682,4.124-3.749l0,0
							c0.083-0.938-0.2-1.813-0.796-2.464C212.048,125.619,211.187,125.256,210.228,125.256z M214.942,128.874h0.01H214.942z"/>
					</g>
					<g>
						<path style="fill:#FFFFFF;" d="M216.599,140.226c-0.464,0-0.921-0.214-1.215-0.618l-4.008-5.512
							c-0.487-0.67-0.339-1.608,0.331-2.096c0.671-0.486,1.608-0.337,2.096,0.331l4.008,5.512c0.487,0.67,0.339,1.608-0.331,2.096
							C217.214,140.132,216.905,140.226,216.599,140.226z"/>
					</g>
				</g>
			</g>
		</g>
		<path style="opacity:0.1;" d="M357.04,123.33c-0.19-0.07-0.39-0.11-0.61-0.11H226.32c-0.98,0-1.8,0.75-1.89,1.73l-1.29,14.75
			c-0.01,0.17,0,0.35,0.03,0.51c-0.81-0.26-1.36-1.05-1.28-1.94l1.29-14.75c0.09-0.98,0.9-1.73,1.88-1.73h130.12
			C356.11,121.79,356.88,122.46,357.04,123.33z"/>
	</g>
</g>
<g id="Device">
	<g>
		<g>
			<g>
				<polygon style="fill:#407BFF;" points="161.846,265.815 149.062,419.934 152.943,419.934 173.915,265.815 				"/>
				<polygon style="fill:#407BFF;" points="304.115,265.815 325.086,419.934 328.967,419.934 316.183,265.815 				"/>
				<polygon style="fill:#407BFF;" points="173.669,420.047 177.55,420.047 200.224,265.815 188.156,265.815 				"/>
				<polygon style="fill:#407BFF;" points="340.938,265.815 328.87,265.815 352.02,420.047 355.9,420.047 				"/>
				<path style="fill:#407BFF;" d="M352.058,263.383c0-2.036-1.75-3.686-3.908-3.686H140.545c-2.159,0-3.908,1.651-3.908,3.686
					c0,2.036,1.75,3.686,3.908,3.686H348.15C350.309,267.069,352.058,265.419,352.058,263.383z"/>
			</g>
			<path style="opacity:0.5;fill:#FFFFFF;" d="M352.02,420.047h3.88L341.06,267.069h7.09c2.159,0,3.908-1.65,3.908-3.686
				c0-2.036-1.75-3.686-3.908-3.686H140.545c-2.159,0-3.908,1.651-3.908,3.686c0,2.036,1.75,3.686,3.908,3.686h21.198
				l-12.68,152.865h3.881l20.801-152.865h14.294l-14.369,152.978h3.881l22.489-152.978h104.246l20.801,152.865h3.881l-12.68-152.865
				h12.771L352.02,420.047z"/>
		</g>
		<g>
			<g>
				<g>
					<g>
						<path style="fill:#407BFF;" d="M263.306,256.804h2.679c0.282,0,0.512-0.229,0.512-0.512v-2.833
							c0-0.282-0.229-0.512-0.512-0.512h-1.924c-0.232,0-0.435,0.156-0.494,0.38l-0.756,2.833
							C262.725,256.486,262.97,256.804,263.306,256.804z"/>
						<path style="fill:#407BFF;" d="M259.604,256.804h2.679c0.283,0,0.512-0.229,0.512-0.512v-2.833
							c0-0.282-0.229-0.512-0.512-0.512h-1.923c-0.232,0-0.435,0.156-0.494,0.38l-0.756,2.833
							C259.023,256.486,259.268,256.804,259.604,256.804z"/>
						<path style="fill:#407BFF;" d="M255.901,256.804h2.679c0.283,0,0.511-0.229,0.511-0.512v-2.833
							c0-0.282-0.229-0.512-0.511-0.512h-1.924c-0.232,0-0.434,0.156-0.494,0.38l-0.756,2.833
							C255.32,256.486,255.565,256.804,255.901,256.804z"/>
						<path style="fill:#407BFF;" d="M252.199,256.804h2.679c0.282,0,0.512-0.229,0.512-0.512v-2.833
							c0-0.282-0.229-0.512-0.512-0.512h-1.924c-0.232,0-0.434,0.156-0.494,0.38l-0.755,2.833
							C251.618,256.486,251.863,256.804,252.199,256.804z"/>
						<path style="fill:#407BFF;" d="M248.497,256.804h2.679c0.283,0,0.512-0.229,0.512-0.512v-2.833
							c0-0.282-0.229-0.512-0.512-0.512h-1.923c-0.232,0-0.434,0.156-0.494,0.38l-0.756,2.833
							C247.916,256.486,248.161,256.804,248.497,256.804z"/>
						<path style="fill:#407BFF;" d="M244.794,256.804h2.679c0.283,0,0.512-0.229,0.512-0.512v-2.833
							c0-0.282-0.229-0.512-0.512-0.512h-1.924c-0.232,0-0.434,0.156-0.494,0.38l-0.756,2.833
							C244.213,256.486,244.458,256.804,244.794,256.804z"/>
						<path style="fill:#407BFF;" d="M241.092,256.804h2.679c0.283,0,0.511-0.229,0.511-0.512v-2.833
							c0-0.282-0.229-0.512-0.511-0.512h-1.924c-0.232,0-0.434,0.156-0.494,0.38l-0.756,2.833
							C240.511,256.486,240.756,256.804,241.092,256.804z"/>
						<path style="fill:#407BFF;" d="M237.389,256.804h2.679c0.283,0,0.512-0.229,0.512-0.512v-2.833
							c0-0.282-0.229-0.512-0.512-0.512h-1.923c-0.232,0-0.435,0.156-0.494,0.38l-0.756,2.833
							C236.809,256.486,237.053,256.804,237.389,256.804z"/>
						<path style="fill:#407BFF;" d="M233.687,256.804h2.679c0.282,0,0.512-0.229,0.512-0.512v-2.833
							c0-0.282-0.229-0.512-0.512-0.512h-1.924c-0.232,0-0.434,0.156-0.494,0.38l-0.756,2.833
							C233.106,256.486,233.351,256.804,233.687,256.804z"/>
						<path style="fill:#407BFF;" d="M229.985,256.804h2.679c0.283,0,0.511-0.229,0.511-0.512v-2.833
							c0-0.282-0.229-0.512-0.511-0.512h-1.924c-0.232,0-0.434,0.156-0.494,0.38l-0.756,2.833
							C229.404,256.486,229.649,256.804,229.985,256.804z"/>
						<path style="fill:#407BFF;" d="M226.282,256.804h2.679c0.283,0,0.512-0.229,0.512-0.512v-2.833
							c0-0.282-0.229-0.512-0.512-0.512h-1.923c-0.232,0-0.435,0.156-0.494,0.38l-0.756,2.833
							C225.702,256.486,225.946,256.804,226.282,256.804z"/>
						<path style="fill:#407BFF;" d="M222.58,256.804h2.679c0.282,0,0.512-0.229,0.512-0.512v-2.833
							c0-0.282-0.229-0.512-0.512-0.512h-1.924c-0.232,0-0.434,0.156-0.494,0.38l-0.755,2.833
							C221.999,256.486,222.244,256.804,222.58,256.804z"/>
						<path style="fill:#407BFF;" d="M218.878,256.804h2.679c0.283,0,0.512-0.229,0.512-0.512v-2.833
							c0-0.282-0.229-0.512-0.512-0.512h-1.923c-0.232,0-0.435,0.156-0.494,0.38l-0.756,2.833
							C218.297,256.486,218.542,256.804,218.878,256.804z"/>
						<path style="fill:#407BFF;" d="M215.175,256.804h2.679c0.283,0,0.512-0.229,0.512-0.512v-2.833
							c0-0.282-0.229-0.512-0.512-0.512h-1.924c-0.232,0-0.434,0.156-0.494,0.38l-0.756,2.833
							C214.594,256.486,214.839,256.804,215.175,256.804z"/>
						<path style="fill:#407BFF;" d="M211.473,256.804h2.679c0.283,0,0.512-0.229,0.512-0.512v-2.833
							c0-0.282-0.229-0.512-0.512-0.512h-1.924c-0.232,0-0.434,0.156-0.494,0.38l-0.756,2.833
							C210.892,256.486,211.137,256.804,211.473,256.804z"/>
					</g>
					<g style="opacity:0.6;">
						<path style="fill:#FFFFFF;" d="M263.306,256.804h2.679c0.282,0,0.512-0.229,0.512-0.512v-2.833
							c0-0.282-0.229-0.512-0.512-0.512h-1.924c-0.232,0-0.435,0.156-0.494,0.38l-0.756,2.833
							C262.725,256.486,262.97,256.804,263.306,256.804z"/>
						<path style="fill:#FFFFFF;" d="M259.604,256.804h2.679c0.283,0,0.512-0.229,0.512-0.512v-2.833
							c0-0.282-0.229-0.512-0.512-0.512h-1.923c-0.232,0-0.435,0.156-0.494,0.38l-0.756,2.833
							C259.023,256.486,259.268,256.804,259.604,256.804z"/>
						<path style="fill:#FFFFFF;" d="M255.901,256.804h2.679c0.283,0,0.511-0.229,0.511-0.512v-2.833
							c0-0.282-0.229-0.512-0.511-0.512h-1.924c-0.232,0-0.434,0.156-0.494,0.38l-0.756,2.833
							C255.32,256.486,255.565,256.804,255.901,256.804z"/>
						<path style="fill:#FFFFFF;" d="M252.199,256.804h2.679c0.282,0,0.512-0.229,0.512-0.512v-2.833
							c0-0.282-0.229-0.512-0.512-0.512h-1.924c-0.232,0-0.434,0.156-0.494,0.38l-0.755,2.833
							C251.618,256.486,251.863,256.804,252.199,256.804z"/>
						<path style="fill:#FFFFFF;" d="M248.497,256.804h2.679c0.283,0,0.512-0.229,0.512-0.512v-2.833
							c0-0.282-0.229-0.512-0.512-0.512h-1.923c-0.232,0-0.434,0.156-0.494,0.38l-0.756,2.833
							C247.916,256.486,248.161,256.804,248.497,256.804z"/>
						<path style="fill:#FFFFFF;" d="M244.794,256.804h2.679c0.283,0,0.512-0.229,0.512-0.512v-2.833
							c0-0.282-0.229-0.512-0.512-0.512h-1.924c-0.232,0-0.434,0.156-0.494,0.38l-0.756,2.833
							C244.213,256.486,244.458,256.804,244.794,256.804z"/>
						<path style="fill:#FFFFFF;" d="M241.092,256.804h2.679c0.283,0,0.511-0.229,0.511-0.512v-2.833
							c0-0.282-0.229-0.512-0.511-0.512h-1.924c-0.232,0-0.434,0.156-0.494,0.38l-0.756,2.833
							C240.511,256.486,240.756,256.804,241.092,256.804z"/>
						<path style="fill:#FFFFFF;" d="M237.389,256.804h2.679c0.283,0,0.512-0.229,0.512-0.512v-2.833
							c0-0.282-0.229-0.512-0.512-0.512h-1.923c-0.232,0-0.435,0.156-0.494,0.38l-0.756,2.833
							C236.809,256.486,237.053,256.804,237.389,256.804z"/>
						<path style="fill:#FFFFFF;" d="M233.687,256.804h2.679c0.282,0,0.512-0.229,0.512-0.512v-2.833
							c0-0.282-0.229-0.512-0.512-0.512h-1.924c-0.232,0-0.434,0.156-0.494,0.38l-0.756,2.833
							C233.106,256.486,233.351,256.804,233.687,256.804z"/>
						<path style="fill:#FFFFFF;" d="M229.985,256.804h2.679c0.283,0,0.511-0.229,0.511-0.512v-2.833
							c0-0.282-0.229-0.512-0.511-0.512h-1.924c-0.232,0-0.434,0.156-0.494,0.38l-0.756,2.833
							C229.404,256.486,229.649,256.804,229.985,256.804z"/>
						<path style="fill:#FFFFFF;" d="M226.282,256.804h2.679c0.283,0,0.512-0.229,0.512-0.512v-2.833
							c0-0.282-0.229-0.512-0.512-0.512h-1.923c-0.232,0-0.435,0.156-0.494,0.38l-0.756,2.833
							C225.702,256.486,225.946,256.804,226.282,256.804z"/>
						<path style="fill:#FFFFFF;" d="M222.58,256.804h2.679c0.282,0,0.512-0.229,0.512-0.512v-2.833
							c0-0.282-0.229-0.512-0.512-0.512h-1.924c-0.232,0-0.434,0.156-0.494,0.38l-0.755,2.833
							C221.999,256.486,222.244,256.804,222.58,256.804z"/>
						<path style="fill:#FFFFFF;" d="M218.878,256.804h2.679c0.283,0,0.512-0.229,0.512-0.512v-2.833
							c0-0.282-0.229-0.512-0.512-0.512h-1.923c-0.232,0-0.435,0.156-0.494,0.38l-0.756,2.833
							C218.297,256.486,218.542,256.804,218.878,256.804z"/>
						<path style="fill:#FFFFFF;" d="M215.175,256.804h2.679c0.283,0,0.512-0.229,0.512-0.512v-2.833
							c0-0.282-0.229-0.512-0.512-0.512h-1.924c-0.232,0-0.434,0.156-0.494,0.38l-0.756,2.833
							C214.594,256.486,214.839,256.804,215.175,256.804z"/>
						<path style="fill:#FFFFFF;" d="M211.473,256.804h2.679c0.283,0,0.512-0.229,0.512-0.512v-2.833
							c0-0.282-0.229-0.512-0.512-0.512h-1.924c-0.232,0-0.434,0.156-0.494,0.38l-0.756,2.833
							C210.892,256.486,211.137,256.804,211.473,256.804z"/>
					</g>
				</g>
				
					<rect x="208.778" y="254.876" transform="matrix(-1 -1.224647e-16 1.224647e-16 -1 477.4578 514.2133)" style="fill:#407BFF;" width="59.902" height="4.461"/>
				
					<rect x="208.778" y="254.876" transform="matrix(-1 -1.224647e-16 1.224647e-16 -1 477.4578 514.2133)" style="opacity:0.6;fill:#FFFFFF;" width="59.902" height="4.461"/>
			</g>
			<g>
				<path style="fill:#407BFF;" d="M279.711,259.207h17.586v-1.563c0-3.068-2.574-5.507-5.638-5.341l-6.888,0.372
					c-2.838,0.153-5.06,2.499-5.06,5.341V259.207z"/>
				<path style="opacity:0.6;fill:#FFFFFF;" d="M279.711,259.207h17.586v-1.563c0-3.068-2.574-5.507-5.638-5.341l-6.888,0.372
					c-2.838,0.153-5.06,2.499-5.06,5.341V259.207z"/>
			</g>
			<g>
				<g>
					<g>
						<path style="fill:#407BFF;" d="M223.941,165.19h6.621l-4.891,69.946h-6.621c-1.097,0-1.925-0.889-1.848-1.987l4.613-65.973
							C221.891,166.08,222.843,165.19,223.941,165.19z"/>
						<path style="opacity:0.7;fill:#FFFFFF;" d="M223.941,165.19h6.621l-4.891,69.946h-6.621c-1.097,0-1.925-0.889-1.848-1.987
							l4.613-65.973C221.891,166.08,222.843,165.19,223.941,165.19z"/>
					</g>
					<g>
						<g>
							<path style="fill:#263238;" d="M222.85,235.137h99.243c1.097,0,2.049-0.89,2.126-1.987l4.613-65.973
								c0.077-1.097-0.751-1.987-1.848-1.987h-99.243c-1.097,0-2.049,0.89-2.126,1.987l-4.613,65.973
								C220.925,234.247,221.752,235.137,222.85,235.137z"/>
						</g>
						<g>
							<path style="opacity:0.1;" d="M307.103,232.165L307.103,232.165c0.348,0,0.653-0.285,0.678-0.633l0.166-2.375
								c0.024-0.348-0.241-0.633-0.589-0.633l0,0c-0.348,0-0.653,0.285-0.678,0.633l-0.166,2.375
								C306.49,231.88,306.755,232.165,307.103,232.165z"/>
							<path style="opacity:0.1;" d="M304.174,232.165L304.174,232.165c0.348,0,0.653-0.285,0.678-0.633l0.166-2.375
								c0.024-0.348-0.241-0.633-0.589-0.633l0,0c-0.348,0-0.653,0.285-0.678,0.633l-0.166,2.375
								C303.561,231.88,303.826,232.165,304.174,232.165z"/>
							<path style="opacity:0.1;" d="M301.245,232.165L301.245,232.165c0.348,0,0.653-0.285,0.678-0.633l0.166-2.375
								c0.024-0.348-0.241-0.633-0.589-0.633l0,0c-0.348,0-0.653,0.285-0.678,0.633l-0.166,2.375
								C300.632,231.88,300.897,232.165,301.245,232.165z"/>
							<path style="opacity:0.1;" d="M312.78,228.52c-1,0-1.88,0.82-1.95,1.82c-0.07,1.01,0.69,1.83,1.7,1.83
								c1,0,1.87-0.82,1.94-1.83C314.54,229.34,313.79,228.52,312.78,228.52z M312.56,231.63c-0.71,0-1.24-0.57-1.19-1.29
								c0.05-0.71,0.66-1.28,1.37-1.28c0.71,0,1.25,0.57,1.2,1.28C313.89,231.06,313.27,231.63,312.56,231.63z"/>
						</g>
						<path style="opacity:0.1;" d="M261.372,219.657c-1.387,0-2.605,1.089-2.769,2.474l-1.535,13.006h24.214l0.284-13.006
							c0.03-1.385-1.036-2.474-2.422-2.474H261.372z M264.613,229.057c0.193-2.755,2.582-4.987,5.336-4.987
							c2.754,0,4.831,2.233,4.638,4.987s-2.582,4.988-5.336,4.988C266.497,234.044,264.42,231.811,264.613,229.057z"/>
					</g>
				</g>
				<g>
					<path style="fill:#407BFF;" d="M260.258,259.166h26.525l-1.781-37.035c-0.067-1.385-1.209-2.474-2.596-2.474h-17.772
						c-1.387,0-2.529,1.089-2.596,2.474L260.258,259.166z M268.533,229.057c0-2.755,2.233-4.987,4.987-4.987
						c2.754,0,4.987,2.233,4.987,4.987s-2.233,4.988-4.987,4.988C270.766,234.044,268.533,231.811,268.533,229.057z"/>
					<path style="opacity:0.7;fill:#FFFFFF;" d="M260.258,259.166h26.525l-1.781-37.035c-0.067-1.385-1.209-2.474-2.596-2.474
						h-17.772c-1.387,0-2.529,1.089-2.596,2.474L260.258,259.166z M268.533,229.057c0-2.755,2.233-4.987,4.987-4.987
						c2.754,0,4.987,2.233,4.987,4.987s-2.233,4.988-4.987,4.988C270.766,234.044,268.533,231.811,268.533,229.057z"/>
				</g>
			</g>
		</g>
		<g>
			<g>
				<polygon style="fill:#407BFF;" points="316.642,252.221 309.038,240.83 309.776,240.663 317.714,251.98 				"/>
			</g>
			<g>
				<polygon style="fill:#407BFF;" points="347.802,252.179 355.406,240.788 354.668,240.621 346.73,251.938 				"/>
			</g>
			<polygon style="fill:#407BFF;" points="331.045,250.364 332.38,250.364 332.022,232.376 331.403,232.376 			"/>
			<polygon style="fill:#263238;" points="347.555,252.137 347.126,252.942 346.235,252.942 347.004,252 			"/>
			<polygon style="fill:#263238;" points="316.862,252.137 317.291,252.942 318.182,252.942 317.413,252 			"/>
			
				<rect x="330.989" y="250.609" transform="matrix(0.0042 -1 1 0.0042 79.2251 581.7327)" style="fill:#263238;" width="1.443" height="0.955"/>
		</g>
		<g>
			<g>
				<g>
					
						<rect x="343.047" y="256.943" transform="matrix(-1 -1.224647e-16 1.224647e-16 -1 689.8569 516.2305)" style="fill:#407BFF;" width="3.763" height="2.344"/>
					
						<rect x="317.522" y="256.943" transform="matrix(-1 -1.224647e-16 1.224647e-16 -1 638.8072 516.2305)" style="fill:#407BFF;" width="3.763" height="2.344"/>
				</g>
				<path style="fill:#407BFF;" d="M316.206,257.981l8.177,0.885c5.186,0.561,10.418,0.561,15.605,0l8.176-0.885v-5.074l-6.64-0.862
					c-6.2-0.805-12.478-0.805-18.678,0l-6.64,0.862V257.981z"/>
				<path style="fill:#263238;" d="M316.206,257.981l8.177,0.885c5.186,0.561,10.418,0.561,15.605,0l8.176-0.885v-5.074l-6.64-0.862
					c-6.2-0.805-12.478-0.805-18.678,0l-6.64,0.862V257.981z"/>
			</g>
			<g>
				<path style="fill:#FFFFFF;" d="M343.414,255.588c0,0.837,0.678,1.515,1.515,1.515c0.837,0,1.515-0.678,1.515-1.515
					c0-0.836-0.678-1.515-1.515-1.515C344.092,254.074,343.414,254.752,343.414,255.588z"/>
				<circle style="fill:#407BFF;" cx="344.928" cy="255.6" r="0.906"/>
			</g>
			<g>
				<path style="fill:#FFFFFF;" d="M336.354,255.6c0,0.264,0.214,0.479,0.479,0.479c0.264,0,0.479-0.215,0.479-0.479
					c0-0.265-0.214-0.479-0.479-0.479C336.569,255.121,336.354,255.335,336.354,255.6z"/>
				<path style="fill:#FFFFFF;" d="M334.647,255.6c0,0.264,0.215,0.479,0.479,0.479c0.264,0,0.479-0.215,0.479-0.479
					c0-0.265-0.214-0.479-0.479-0.479C334.862,255.121,334.647,255.335,334.647,255.6z"/>
				<path style="fill:#FFFFFF;" d="M332.94,255.6c0,0.264,0.215,0.479,0.479,0.479s0.479-0.215,0.479-0.479
					c0-0.265-0.214-0.479-0.479-0.479S332.94,255.335,332.94,255.6z"/>
				<path style="fill:#FFFFFF;" d="M331.233,255.6c0,0.264,0.215,0.479,0.479,0.479c0.264,0,0.479-0.215,0.479-0.479
					c0-0.265-0.214-0.479-0.479-0.479C331.448,255.121,331.233,255.335,331.233,255.6z"/>
				<path style="fill:#FFFFFF;" d="M329.526,255.6c0,0.264,0.215,0.479,0.479,0.479c0.264,0,0.479-0.215,0.479-0.479
					c0-0.265-0.215-0.479-0.479-0.479C329.741,255.121,329.526,255.335,329.526,255.6z"/>
				<path style="fill:#FFFFFF;" d="M327.82,255.6c0,0.264,0.214,0.479,0.479,0.479c0.264,0,0.479-0.215,0.479-0.479
					c0-0.265-0.214-0.479-0.479-0.479C328.034,255.121,327.82,255.335,327.82,255.6z"/>
				<path style="fill:#FFFFFF;" d="M326.113,255.6c0,0.264,0.214,0.479,0.479,0.479c0.264,0,0.479-0.215,0.479-0.479
					c0-0.265-0.215-0.479-0.479-0.479C326.327,255.121,326.113,255.335,326.113,255.6z"/>
			</g>
		</g>
	</g>
</g>
</svg>
